<svg width="35" height="35" viewBox="0 0 35 35" fill="none" xmlns="http://www.w3.org/2000/svg">
<path d="M24.7916 13.8542H10.8062L12.7021 11.9729C12.9767 11.6983 13.1309 11.3259 13.1309 10.9375C13.1309 10.5491 12.9767 10.1767 12.7021 9.90209C12.4274 9.62748 12.055 9.47321 11.6666 9.47321C11.2783 9.47321 10.9058 9.62748 10.6312 9.90209L6.25622 14.2771C6.12345 14.4158 6.01938 14.5793 5.94997 14.7583C5.80411 15.1134 5.80411 15.5116 5.94997 15.8667C6.01938 16.0457 6.12345 16.2092 6.25622 16.3479L10.6312 20.7229C10.7668 20.8596 10.9281 20.9681 11.1058 21.0421C11.2835 21.1162 11.4741 21.1543 11.6666 21.1543C11.8592 21.1543 12.0498 21.1162 12.2275 21.0421C12.4052 20.9681 12.5665 20.8596 12.7021 20.7229C12.8387 20.5874 12.9472 20.4261 13.0213 20.2483C13.0953 20.0706 13.1334 19.88 13.1334 19.6875C13.1334 19.495 13.0953 19.3044 13.0213 19.1267C12.9472 18.949 12.8387 18.7877 12.7021 18.6521L10.8062 16.7708H24.7916C25.1784 16.7708 25.5493 16.9245 25.8228 17.198C26.0963 17.4715 26.25 17.8424 26.25 18.2292V24.0625C26.25 24.4493 26.4036 24.8202 26.6771 25.0937C26.9506 25.3672 27.3215 25.5208 27.7083 25.5208C28.0951 25.5208 28.466 25.3672 28.7395 25.0937C29.013 24.8202 29.1666 24.4493 29.1666 24.0625V18.2292C29.1666 17.0689 28.7057 15.9561 27.8852 15.1356C27.0648 14.3151 25.952 13.8542 24.7916 13.8542Z" fill="white"/>
</svg>
